<svg width="48" height="45" viewBox="0 0 48 45" fill="none" xmlns="http://www.w3.org/2000/svg">
<path d="M47.3333 22.3578C47.3333 34.6854 36.7376 44.6786 23.6667 44.6786C10.5958 44.6786 0 34.6854 0 22.3578C0 10.0303 10.5958 0.0371094 23.6667 0.0371094C36.7376 0.0371094 47.3333 10.0303 47.3333 22.3578Z" fill="#4A7AFF"/>
<path d="M24.7052 44.6563C37.294 44.1437 47.3333 34.3573 47.3333 22.3584C47.3333 22.2715 47.3308 22.185 47.3297 22.0981L30.9018 6.60413L13.3367 23.9196L23.0961 33.124L18.5961 38.8946L24.7052 44.6563Z" fill="#0053BF"/>
<path d="M30.9018 6.60414V11.6585C30.9018 11.6585 24.7489 10.8162 24.7489 14.5599V18.3037H30.3063L29.6118 24.0129H24.7489V38.8945H18.5961V24.0129L13.3363 23.9193V18.3037H18.4968V13.9983C18.4968 13.9983 18.1562 7.59355 24.8482 6.41716C27.6271 5.92841 30.9018 6.60414 30.9018 6.60414Z" fill="white"/>
<path d="M30.9018 11.6585V6.60414C30.9018 6.60414 27.6271 5.92841 24.8483 6.41716C24.4142 6.49345 24.0104 6.59222 23.6338 6.70904V38.8945H24.7489V24.0129H29.6115L30.3063 18.3037H24.7489C24.7489 18.3037 24.7489 18.3037 24.7489 14.5599C24.7489 10.8162 30.9018 11.6585 30.9018 11.6585Z" fill="#DCE1EB"/>
</svg>
