<svg width="48" height="45" viewBox="0 0 48 45" fill="none" xmlns="http://www.w3.org/2000/svg">
<path d="M24.3334 44.6786C37.4041 44.6786 48 34.6852 48 22.3578C48 10.0304 37.4041 0.0371094 24.3334 0.0371094C11.2626 0.0371094 0.666687 10.0304 0.666687 22.3578C0.666687 34.6852 11.2626 44.6786 24.3334 44.6786Z" fill="#CF4C3C"/>
<path d="M35.147 18.8285L31.7707 22.6596L25.4137 16.4239H16.6304L13.0755 20.0542V27.8937L30.1437 44.0011C37.8718 42.1612 44.0863 36.7365 46.6841 29.7117L35.147 18.8285Z" fill="#AD3228"/>
<path d="M25.507 23.3841H30.8232C29.8901 25.872 27.3626 27.6559 24.4043 27.6355C20.8144 27.6105 17.8456 24.902 17.7065 21.5186C17.5572 17.8921 20.6421 14.8964 24.4547 14.8964C26.1981 14.8964 27.7891 15.5231 28.9884 16.5496C29.2726 16.7927 29.7048 16.7945 29.9843 16.5462L31.9369 14.8134C32.2424 14.5423 32.2433 14.0844 31.9388 13.8126C30.0368 12.1128 27.4852 11.0535 24.6714 11.0019C18.6701 10.8911 13.6115 15.5319 13.5698 21.1929C13.5274 26.8966 18.417 31.5326 24.4547 31.5326C30.2614 31.5326 35.0047 27.2448 35.3223 21.8437C35.3307 21.776 35.3364 19.4874 35.3364 19.4874H25.5071C25.1042 19.4874 24.7778 19.7954 24.7778 20.1752V22.6963C24.7776 23.0761 25.1042 23.3841 25.507 23.3841Z" fill="white"/>
</svg>
